HIERARCHY
ROOT Hips
{
	OFFSET 0.00000 0.00000 0.00000
	CHANNELS 6 Xposition Yposition Zposition Zrotation Yrotation Xrotation 
	JOINT LHipJoint
	{
		OFFSET 0 0 0
		CHANNELS 3 Zrotation Yrotation Xrotation
		JOINT LeftUpLeg
		{
			OFFSET 1.38691 -1.89057 0.78360
			CHANNELS 3 Zrotation Yrotation Xrotation
			JOINT LeftLeg
			{
				OFFSET 2.59731 -7.13606 0.00000
				CHANNELS 3 Zrotation Yrotation Xrotation
				JOINT LeftFoot
				{
					OFFSET 2.70078 -7.42033 0.00000
					CHANNELS 3 Zrotation Yrotation Xrotation
					JOINT LeftToeBase
					{
						OFFSET 0.16751 -0.46024 2.68862
						CHANNELS 3 Zrotation Yrotation Xrotation
						End Site
						{
							OFFSET 0.00000 -0.00000 1.37057
						}
					}
				}
			}
		}
	}
	JOINT RHipJoint
	{
		OFFSET 0 0 0
		CHANNELS 3 Zrotation Yrotation Xrotation
		JOINT RightUpLeg
		{
			OFFSET -1.38190 -1.89056 0.78359
			CHANNELS 3 Zrotation Yrotation Xrotation
			JOINT RightLeg
			{
				OFFSET -2.57785 -7.08258 0.00000
				CHANNELS 3 Zrotation Yrotation Xrotation
				JOINT RightFoot
				{
					OFFSET -2.77908 -7.63547 0.00000
					CHANNELS 3 Zrotation Yrotation Xrotation
					JOINT RightToeBase
					{
						OFFSET -0.17921 -0.49237 2.62360
						CHANNELS 3 Zrotation Yrotation Xrotation
						End Site
						{
							OFFSET -0.00000 -0.00000 1.34085
						}
					}
				}
			}
		}
	}
	JOINT LowerBack
	{
		OFFSET 0 0 0
		CHANNELS 3 Zrotation Yrotation Xrotation
		JOINT Spine
		{
			OFFSET -0.10749 2.04110 -0.22549
			CHANNELS 3 Zrotation Yrotation Xrotation
			JOINT Spine1
			{
				OFFSET 0.01213 2.05840 0.00691
				CHANNELS 3 Zrotation Yrotation Xrotation
				JOINT Neck
				{
					OFFSET 0 0 0
					CHANNELS 3 Zrotation Yrotation Xrotation
					JOINT Neck1
					{
						OFFSET 0.06585 1.81215 0.35449
						CHANNELS 3 Zrotation Yrotation Xrotation
						JOINT Head
						{
							OFFSET -0.04315 1.87555 -0.27307
							CHANNELS 3 Zrotation Yrotation Xrotation
							End Site
							{
								OFFSET -0.01775 1.89740 -0.13294
							}
						}
					}
				}
				JOINT LeftShoulder
				{
					OFFSET 0 0 0
					CHANNELS 3 Zrotation Yrotation Xrotation
					JOINT LeftArm
					{
						OFFSET 2.98012 1.63606 0.28888
						CHANNELS 3 Zrotation Yrotation Xrotation
						JOINT LeftForeArm
						{
							OFFSET 5.59864 -0.00000 -0.00000
							CHANNELS 3 Zrotation Yrotation Xrotation
							JOINT LeftHand
							{
								OFFSET 3.59542 -0.00000 -0.00000
								CHANNELS 3 Zrotation Yrotation Xrotation
								JOINT LeftFingerBase
								{
									OFFSET 0 0 0
									CHANNELS 3 Zrotation Yrotation Xrotation
									JOINT LeftHandIndex1
									{
										OFFSET 0.57201 -0.00000 -0.00000
										CHANNELS 3 Zrotation Yrotation Xrotation
										End Site
										{
											OFFSET 0.46117 -0.00000 -0.00000
										}
									}
								}
								JOINT LThumb
								{
									OFFSET 0 0 0
									CHANNELS 3 Zrotation Yrotation Xrotation
									End Site
									{
										OFFSET 0.46821 -0.00000 0.46821
									}
								}
							}
						}
					}
				}
				JOINT RightShoulder
				{
					OFFSET 0 0 0
					CHANNELS 3 Zrotation Yrotation Xrotation
					JOINT RightArm
					{
						OFFSET -3.08694 1.53706 0.36335
						CHANNELS 3 Zrotation Yrotation Xrotation
						JOINT RightForeArm
						{
							OFFSET -5.80940 -0.00000 -0.00000
							CHANNELS 3 Zrotation Yrotation Xrotation
							JOINT RightHand
							{
								OFFSET -3.66953 -0.00000 -0.00000
								CHANNELS 3 Zrotation Yrotation Xrotation
								JOINT RightFingerBase
								{
									OFFSET 0 0 0
									CHANNELS 3 Zrotation Yrotation Xrotation
									JOINT RightHandIndex1
									{
										OFFSET -0.57843 -0.00000 -0.00000
										CHANNELS 3 Zrotation Yrotation Xrotation
										End Site
										{
											OFFSET -0.46635 -0.00000 -0.00000
										}
									}
								}
								JOINT RThumb
								{
									OFFSET 0 0 0
									CHANNELS 3 Zrotation Yrotation Xrotation
									End Site
									{
										OFFSET -0.47347 -0.00000 0.47347
									}
								}
							}
						}
					}
				}
			}
		}
	}
}
MOTION
Frames: 11
Frame Time: .0083333
-2.5899 19.4206 -30.9257 0 0 0 0 0 0 -21 0 0 0 0 0 0 0 0 0 0 0 0 0 0 21 0 0 0 0 0 0 0 0 0 0 0 0 0 0 0 0 0 0 0 0 0 0 -16 0 0 21 0 0 11 0 0 0 -8 0 0 0 0 0 0 0 0 0 0 0 0 0 0 0 0 0 0 0 0 8 0 0 0 0 0 0 0 0 0 0 0 0 0 0 0 0 0
-2.5899 19.4206 -30.9257 -7.4662 51.9339 -5.9164 0.0000 0.0000 0.0000 -14.3360 -0.0382 1.6759 2.4805 9.8023 28.3389 5.7156 -19.2395 -44.0457 0.7263 5.4453 15.1831 0.0000 0.0000 0.0000 23.2152 3.4453 -21.3353 -4.9945 -13.3776 40.7987 -2.4450 7.1872 -28.2283 -0.0562 1.5294 -4.2066 -6.1725 -1.3535 9.2247 -1.0008 -2.5337 -0.6872 2.7692 -1.0672 -5.6857 -1.7591 -5.1620 -17.2571 6.4641 -9.2699 37.1657 1.4480 -2.9606 16.8105 0.0000 0.0000 0.0000 -85.5809 1.7147 22.3983 13.5307 -22.0598 -2.6493 -0.0000 0.0000 -18.1413 29.8578 26.8540 14.5371 -7.1250 0.0000 -0.0000 -0.2689 60.2565 -0.1001 0.0000 0.0000 0.0000 86.4456 -3.7736 47.3556 -33.6298 43.8086 -13.8562 0.0000 -0.0000 -17.6901 -35.1569 -6.2076 4.3550 7.1250 -0.0000 -0.0000 -7.1833 -37.4708 -1.3395
-2.5683 19.4510 -30.6347 -7.3977 51.7069 -5.2718 0.0000 0.0000 0.0000 -14.3538 0.0042 0.9728 2.5505 9.9291 28.7475 6.0064 -16.9229 -45.0579 0.5559 4.7761 13.2711 0.0000 0.0000 0.0000 23.2477 3.5868 -21.6671 -4.8899 -13.2587 40.3448 -2.3673 7.1556 -27.7590 -0.0527 1.4818 -4.0755 -6.0807 -1.5095 8.5913 -1.0023 -2.6962 -0.9321 2.7182 -1.1502 -5.5749 -1.7482 -5.0707 -17.1084 6.3407 -9.0895 37.2316 1.4313 -2.9060 16.7844 0.0000 -0.0000 0.0000 -85.7981 2.0054 22.1016 13.5127 -22.0338 -2.6425 -0.0000 0.0000 -17.8089 28.7595 25.6750 13.3760 -7.1250 0.0000 -0.0000 -1.1402 58.7153 -0.3823 0.0000 -0.0000 0.0000 86.6726 -4.3593 46.7375 -33.1714 43.4614 -13.5399 0.0000 -0.0000 -18.6057 -33.9799 -5.7638 3.8723 7.1250 -0.0000 -0.0000 -6.1581 -36.8586 -1.2390
-2.5472 19.4811 -30.3433 -7.3571 51.4959 -4.6911 0.0000 0.0000 0.0000 -14.3446 0.0741 0.2773 2.6290 10.0689 29.2000 6.2397 -14.8511 -45.9365 0.3893 4.0066 11.0952 0.0000 0.0000 0.0000 23.3182 3.6989 -21.9493 -4.7798 -13.1314 39.8625 -2.2863 7.0719 -27.2651 -0.0469 1.3974 -3.8431 -5.9389 -1.6591 7.9871 -1.0157 -2.8473 -1.1486 2.6238 -1.2300 -5.4542 -1.6936 -5.0049 -17.0195 6.1482 -8.9410 37.3425 1.3694 -2.8649 16.7914 -0.0000 0.0000 0.0000 -85.8103 2.6120 22.8465 13.9107 -22.6069 -2.7937 -0.0000 0.0000 -18.6546 27.9719 24.8195 12.5673 -7.1250 0.0000 -0.0000 -1.7455 57.6102 -0.5390 -0.0000 0.0000 0.0000 86.9579 -4.8372 46.3483 -32.6459 43.0561 -13.1797 0.0000 -0.0000 -19.1298 -34.3398 -6.2198 4.2331 7.1250 -0.0000 -0.0000 -6.4836 -37.4282 -1.2144
-2.5265 19.5069 -30.0557 -7.2259 51.3531 -4.0109 0.0000 0.0000 0.0000 -14.4068 0.0831 -0.4449 2.7067 10.2044 29.6411 6.4149 -12.8962 -46.6540 0.2459 3.1912 8.8115 0.0000 0.0000 0.0000 23.3186 3.7197 -22.2327 -4.6713 -13.0038 39.3826 -2.2245 7.2209 -26.8684 -0.0457 1.3795 -3.7936 -5.8728 -1.8054 7.3289 -1.0110 -2.9954 -1.3260 2.5849 -1.3088 -5.2574 -1.6742 -4.8940 -16.9746 5.9747 -8.7124 37.3718 1.3347 -2.7953 16.7650 -0.0000 0.0000 0.0000 -86.0168 2.6651 22.2033 13.7332 -22.3520 -2.7258 -0.0000 0.0000 -18.1073 26.9734 23.6510 11.5394 -7.1250 0.0000 -0.0000 -2.4704 56.1326 -0.6748 -0.0000 0.0000 0.0000 87.2156 -5.1703 45.7724 -31.9646 42.5189 -12.7169 0.0000 -0.0000 -19.5239 -35.2488 -6.4929 4.5690 7.1250 -0.0000 -0.0000 -7.2770 -37.8222 -1.2941
-2.5056 19.5347 -29.7651 -7.1470 51.0601 -3.4087 0.0000 0.0000 0.0000 -14.4349 0.1198 -1.0589 2.7845 10.3377 30.0774 6.5751 -11.0934 -47.3640 0.1464 2.4655 6.7941 0.0000 0.0000 0.0000 23.3681 3.9727 -22.4388 -4.5615 -12.8722 38.8921 -2.1738 7.2050 -26.5490 -0.0543 1.5038 -4.1361 -5.7729 -1.8777 6.6965 -1.0093 -3.0450 -1.5103 2.5131 -1.3389 -5.0925 -1.4065 -4.8787 -16.8540 5.6422 -8.6535 37.3778 1.1540 -2.7851 16.6919 -0.0000 0.0000 0.0000 -86.1118 3.0044 23.0434 14.0587 -22.8185 -2.8508 -0.0000 0.0000 -18.9477 25.5919 22.0979 10.2137 -7.1250 0.0000 -0.0000 -3.4698 54.1829 -0.7838 -0.0000 0.0000 0.0000 87.6058 -5.4935 45.0119 -31.0985 41.8166 -12.1355 0.0000 -0.0000 -19.4693 -34.6971 -6.8511 4.7214 7.1250 -0.0000 -0.0000 -6.8173 -38.2118 -1.1459
-2.4860 19.5588 -29.4760 -7.0486 50.8137 -2.8958 0.0000 0.0000 0.0000 -14.4716 0.2115 -1.6026 2.8642 10.4719 30.5189 6.6886 -9.5377 -47.9200 0.0698 1.7047 4.6902 0.0000 0.0000 0.0000 23.4055 4.0806 -22.5620 -4.4555 -12.7431 38.4142 -2.1149 7.2575 -26.1689 -0.0572 1.5431 -4.2444 -5.6918 -1.9737 6.1947 -1.0095 -3.1373 -1.6776 2.4584 -1.3879 -4.9794 -1.2890 -4.8190 -16.7492 5.4214 -8.5186 37.4081 1.0644 -2.7478 16.6494 0.0000 0.0000 0.0000 -86.2416 3.2817 23.3540 14.2246 -23.0549 -2.9155 -0.0000 0.0000 -19.2927 24.7452 21.0903 9.4169 -7.1250 0.0000 -0.0000 -4.0544 52.9441 -0.7935 0.0000 0.0000 0.0000 87.9262 -5.8551 44.2975 -30.3681 41.2068 -11.6514 0.0000 -0.0000 -19.6488 -34.6484 -7.0914 4.8766 7.1250 -0.0000 -0.0000 -6.7848 -38.4965 -1.0927
-2.4671 19.5801 -29.1878 -6.9443 50.5449 -2.4700 0.0000 0.0000 0.0000 -14.5188 0.3216 -2.0285 2.9422 10.6008 30.9452 6.7890 -8.1473 -48.4436 0.0225 0.9678 2.6603 0.0000 0.0000 0.0000 23.4476 4.1674 -22.5818 -4.3517 -12.6142 37.9410 -2.0591 7.3396 -25.8034 -0.0612 1.5956 -4.3894 -5.6223 -2.0475 5.7858 -1.0083 -3.2070 -1.8207 2.4124 -1.4249 -4.8951 -1.1818 -4.7654 -16.6396 5.2147 -8.3941 37.4312 0.9809 -2.7144 16.6050 -0.0000 -0.0000 0.0000 -86.3739 3.5333 23.7190 14.3985 -23.3015 -2.9839 -0.0000 0.0000 -19.6746 24.0361 20.2475 8.7741 -7.1250 0.0000 -0.0000 -4.5390 51.9174 -0.7744 -0.0000 -0.0000 0.0000 88.2585 -6.1919 43.5173 -29.5978 40.5462 -11.1473 0.0000 -0.0000 -19.7128 -34.6203 -7.3345 5.0367 7.1250 -0.0000 -0.0000 -6.7697 -38.7859 -1.0419
-2.4489 19.5986 -28.9005 -6.8403 50.2495 -2.1349 0.0000 0.0000 0.0000 -14.5668 0.4616 -2.3512 3.0215 10.7298 31.3741 6.8806 -6.9177 -48.9403 0.0016 0.2553 0.7014 0.0000 0.0000 0.0000 23.4985 4.2334 -22.5068 -4.2525 -12.4890 37.4847 -2.0061 7.4554 -25.4507 -0.0658 1.6554 -4.5541 -5.5607 -2.0994 5.4696 -1.0043 -3.2541 -1.9428 2.3748 -1.4497 -4.8425 -1.0946 -4.7139 -16.5229 5.0305 -8.2737 37.4476 0.9101 -2.6825 16.5591 0.0000 0.0000 0.0000 -86.5200 3.7399 24.0908 14.5573 -23.5258 -3.0470 -0.0000 0.0000 -20.0313 23.4633 19.5671 8.2710 -7.1250 0.0000 -0.0000 -4.9274 51.0949 -0.7414 0.0000 0.0000 0.0000 88.5963 -6.5126 42.6609 -28.7990 39.8415 -10.6317 0.0000 -0.0000 -19.6841 -34.5438 -7.5362 5.1590 7.1250 -0.0000 -0.0000 -6.7104 -39.0212 -0.9937
-2.4310 19.6158 -28.6142 -6.7379 49.9316 -1.8831 0.0000 0.0000 0.0000 -14.6160 0.6507 -2.5557 3.0938 10.8454 31.7604 6.9623 -5.7598 -49.4096 0.0050 -0.4576 -1.2574 0.0000 0.0000 0.0000 23.5613 4.2672 -22.3351 -4.1510 -12.3587 37.0129 -1.9532 7.5738 -25.0965 -0.0714 1.7242 -4.7439 -5.5013 -2.1321 5.2404 -0.9981 -3.2814 -2.0478 2.3424 -1.4638 -4.8228 -1.0310 -4.6649 -16.4024 4.8694 -8.1576 37.4635 0.8530 -2.6522 16.5158 0.0000 -0.0000 0.0000 -86.6745 3.9197 24.5040 14.7175 -23.7511 -3.1113 -0.0000 0.0000 -20.3942 23.0224 19.0550 7.8983 -7.1250 0.0000 -0.0000 -5.2278 50.4781 -0.7075 0.0000 -0.0000 0.0000 88.9331 -6.8253 41.7328 -27.9881 39.1053 -10.1162 0.0000 -0.0000 -19.5528 -34.4254 -7.7083 5.2523 7.1250 -0.0000 -0.0000 -6.6125 -39.2169 -0.9471
-2.4131 19.6308 -28.3291 -6.6397 49.5942 -1.6852 0.0000 0.0000 0.0000 -14.6671 0.8475 -2.6868 3.1641 10.9560 32.1318 7.0435 -4.7720 -49.8682 0.0299 -1.1154 -3.0664 0.0000 0.0000 0.0000 23.6341 4.2891 -22.1155 -4.0558 -12.2342 36.5657 -1.9021 7.7126 -24.7498 -0.0771 1.7915 -4.9298 -5.4377 -2.1499 5.0602 -0.9870 -3.2914 -2.1411 2.3133 -1.4692 -4.8200 -0.9946 -4.6146 -16.2829 4.7285 -8.0379 37.4790 0.8102 -2.6213 16.4757 -0.0000 0.0000 0.0000 -86.8437 4.0610 24.9102 14.8597 -23.9502 -3.1687 -0.0000 0.0000 -20.7057 22.7267 18.7324 7.6612 -7.1250 0.0000 -0.0000 -5.4337 50.0882 -0.6833 -0.0000 0.0000 0.0000 89.2600 -7.1222 40.7447 -27.1696 38.3404 -9.6041 0.0000 -0.0000 -19.3380 -34.3210 -7.8382 5.3190 7.1250 -0.0000 -0.0000 -6.5250 -39.3630 -0.9109
